<svg xmlns="http://www.w3.org/2000/svg" viewBox="0 0 430 430">
  <defs>
    <style>
      .cls-1 {
        isolation: isolate;
      }

      .cls-2 {
        fill: #121331;
      }

      .cls-3, .cls-6 {
        fill: #ebe6ef;
      }

      .cls-4, .cls-5 {
        fill: #4bb3fd;
      }

      .cls-5, .cls-6 {
        mix-blend-mode: multiply;
        opacity: 0.5;
      }
    </style>
  </defs>
  <g class="cls-1">
    <g id="Warstwa_1" data-name="Warstwa 1">
      <g>
        <path class="cls-2" d="M107.39,301.14H26.55a3.5,3.5,0,0,1,0-7h80.84a3.5,3.5,0,0,1,0,7Zm.21-41.25H26.75a3.5,3.5,0,0,1,0-7H107.6a3.5,3.5,0,1,1,0,7Zm0-41.75H26.75a3.5,3.5,0,0,1,0-7H107.6a3.5,3.5,0,1,1,0,7Zm-.16-41.25H26.6a3.5,3.5,0,1,1,0-7h80.84a3.5,3.5,0,0,1,0,7Zm0-41.75H26.6a3.5,3.5,0,1,1,0-7h80.84a3.5,3.5,0,0,1,0,7Z"/>
        <polygon class="cls-3" points="403.46 131.66 403.46 298.36 151.73 298.36 151.73 131.64 167.96 131.64 403.46 131.66"/>
        <path class="cls-4" d="M403.46,131.66,298.16,237.31c-.29.29-.59.58-.9.86s-.54.49-.82.72a.42.42,0,0,1-.13.11c-.29.25-.59.5-.9.73s-.63.49-1,.72a27.09,27.09,0,0,1-3.13,2c-.19.11-.39.21-.59.31l-.64.32-.48.22c-.31.15-.63.28-.95.41l-.23.1-1,.37c-.58.22-1.18.41-1.78.58-.35.11-.72.2-1.08.29a1.37,1.37,0,0,1-.35.08c-.21.06-.43.11-.65.15s-.45.1-.68.14l-.82.14a0,0,0,0,1,0,0l-.48.08c-.38.06-.76.1-1.14.14l-.51,0c-.23,0-.46,0-.69,0l-.65,0a29.11,29.11,0,0,1-21.78-8.55l-17.64-17.74-.19-.19-86.57-87-.69-.7H168Z"/>
        <path class="cls-5" d="M285.58,244.72c-.59.17-1.18.32-1.77.46a.8.8,0,0,1-.21,0c-.22.06-.45.1-.68.14l-.82.14a0,0,0,0,1,0,0l-.48.08c-.38.06-.76.1-1.14.14l-.51,0c-.23,0-.46,0-.69,0l-.65,0a29.11,29.11,0,0,1-21.78-8.55l-17.64-17.74-.19-.19-87.26-87.74H168c.17.2,87.42,87.93,87.42,87.93L273,237.31A29,29,0,0,0,285.58,244.72Z"/>
        <path class="cls-2" d="M403.46,128.16l-251.73,0a3.5,3.5,0,0,0-3.5,3.5V298.36a3.5,3.5,0,0,0,3.5,3.5H403.46a3.5,3.5,0,0,0,3.5-3.5V131.66A3.5,3.5,0,0,0,403.46,128.16ZM400,273.71l-60.22-52a87.54,87.54,0,0,0-12.18-8.86L400,140.29Zm-4.78-138.55-75.79,75.93-.06.06-23.65,23.69a25.72,25.72,0,0,1-36.39,0l-99.5-99.7ZM227.61,213a86.78,86.78,0,0,0-11.75,8.56l-60.63,53.28V140.48Zm-72.38,81.86v-10.7l65.23-57.33a80.1,80.1,0,0,1,12.27-8.7l21.61,21.65a32.49,32.49,0,0,0,23.15,9.6h0a32.47,32.47,0,0,0,23.14-9.6L322.43,218a80,80,0,0,1,12.72,9L400,283v11.9Z"/>
        <path class="cls-6" d="M239.17,219.57l-87.45,73.18V282.58l66.45-58.39a83.22,83.22,0,0,1,15.14-10.43Z"/>
        <path class="cls-6" d="M403.45,282.63v10.13L316,219.57l5.86-5.81A83.29,83.29,0,0,1,337,224.19l66.44,58.39Z"/>
      </g>
    </g>
  </g>
</svg>
